<svg width="16" height="16" viewBox="0 0 16 16" fill="none" xmlns="http://www.w3.org/2000/svg">
<g id="Icons1/Address" opacity="0.2">
<g id="Icons1/Address_2">
<g id="Icon">
<path id="Icon Shape" fill-rule="evenodd" clip-rule="evenodd" d="M2.22217 6.63886C2.22217 3.44788 4.80897 0.861084 7.99995 0.861084C11.1909 0.861084 13.7777 3.44788 13.7777 6.63886C13.7777 10.5389 8.72217 14.9444 8.46939 15.1322C8.19912 15.3634 7.80077 15.3634 7.5305 15.1322L7.5293 15.1312C7.2958 14.9288 2.22217 10.5319 2.22217 6.63886ZM3.66661 6.63886C3.66661 9.05108 6.46161 12.1639 7.99994 13.6083C9.53828 12.1711 12.3333 9.05108 12.3333 6.63886C12.3333 4.24563 10.3932 2.30553 7.99994 2.30553C5.60671 2.30553 3.66661 4.24563 3.66661 6.63886ZM7.99995 3.74997C6.40446 3.74997 5.11106 5.04337 5.11106 6.63886C5.11106 8.23435 6.40446 9.52775 7.99995 9.52775C9.59544 9.52775 10.8888 8.23435 10.8888 6.63886C10.8888 5.04337 9.59544 3.74997 7.99995 3.74997ZM6.5555 6.63886C6.5555 7.4366 7.2022 8.0833 7.99994 8.0833C8.79769 8.0833 9.44439 7.4366 9.44439 6.63886C9.44439 5.84111 8.79769 5.19441 7.99994 5.19441C7.2022 5.19441 6.5555 5.84111 6.5555 6.63886Z" fill="#212121"/>
</g>
</g>
</g>
</svg>
