<svg width="16" height="16" viewBox="0 0 16 16" fill="none" xmlns="http://www.w3.org/2000/svg">
<g id="Icons1/Site" opacity="0.2">
<g id="Icons1/Site_2">
<g id="Icon">
<path id="Icon Shape" fill-rule="evenodd" clip-rule="evenodd" d="M1.3335 7.99992C1.3335 4.31802 4.31826 1.33325 8.00016 1.33325C9.76827 1.33325 11.464 2.03563 12.7142 3.28587C13.9644 4.53612 14.6668 6.23181 14.6668 7.99992C14.6668 11.6818 11.6821 14.6666 8.00016 14.6666C4.31826 14.6666 1.3335 11.6818 1.3335 7.99992ZM8.66683 12.6666V13.2866C11.0803 12.9805 12.9808 11.0801 13.2868 8.66659H12.6668C12.2986 8.66659 12.0002 8.36811 12.0002 7.99992C12.0002 7.63173 12.2986 7.33326 12.6668 7.33326H13.2868C12.9808 4.9198 11.0803 3.01931 8.66683 2.71326V3.33326C8.66683 3.70145 8.36835 3.99992 8.00016 3.99992C7.63197 3.99992 7.3335 3.70145 7.3335 3.33326V2.71326C4.92004 3.01931 3.01955 4.9198 2.7135 7.33326H3.3335C3.70169 7.33326 4.00016 7.63173 4.00016 7.99992C4.00016 8.36811 3.70169 8.66659 3.3335 8.66659H2.7135C3.01955 11.0801 4.92004 12.9805 7.3335 13.2866V12.6666C7.3335 12.2984 7.63197 11.9999 8.00016 11.9999C8.36835 11.9999 8.66683 12.2984 8.66683 12.6666ZM10.0935 5.03325L6.76016 6.44658C6.60477 6.51391 6.48083 6.63785 6.4135 6.79325L5.00016 10.1266C4.89275 10.3767 4.94817 10.667 5.14016 10.8599C5.26325 10.9855 5.43098 11.0574 5.60683 11.0599C5.69908 11.06 5.79018 11.0395 5.8735 10.9999L9.20683 9.58658C9.36222 9.51925 9.48617 9.39531 9.5535 9.23991L10.9668 5.90658C11.0722 5.6567 11.0157 5.36788 10.824 5.17612C10.6322 4.98435 10.3434 4.92786 10.0935 5.03325ZM6.91349 9.09992L8.43349 8.43325L9.10016 6.91325L7.58016 7.57992L6.91349 9.09992Z" fill="#212121"/>
</g>
</g>
</g>
</svg>
